<svg width="193" height="110" viewBox="0 0 193 110" fill="none" xmlns="http://www.w3.org/2000/svg">
<path d="M187.269 0.51847H187.417H191.849C191.997 0.469217 192.046 0.51847 191.997 0.66623V15.1467V15.2945H191.406V15.4422V16.9198V17.0676H190.815V18.2497H190.224C190.224 18.3974 190.224 18.7422 190.224 19.284V19.4318H189.633V20.6138H189.042V21.2049H188.451V22.387H187.86V22.978H187.269V23.569H186.678V24.1601H186.087V24.7511H185.496V25.3422H184.314V25.9332H183.132V26.5242H181.949V27.1153H180.767V27.7063H180.62H178.551H178.403V28.2974H178.255H169.685H169.538V27.7063H170.129V27.1153H170.72V26.5242H171.311V25.9332H171.902V24.7511H172.493V24.1601H173.084V23.569H173.675V22.978H174.266V21.7959H174.857V21.2049H175.448V20.6138H176.039V20.0228H176.63V19.4318H177.221V18.2497H177.812V17.6586H178.403V17.0676H178.994V16.4766H179.585V15.8855H180.176V14.7034H180.767V14.1124H181.358V13.5214H181.949V12.9303H182.541V11.7482H181.358V12.3393H180.767V12.9303H179.585V13.5214H178.994V14.1124H178.403V14.7034H177.812V15.2945H176.63V15.8855H176.039V16.4766H175.448V17.0676H174.857V17.6586H173.675V18.2497H173.084V18.8407H172.493V19.4318H171.902V20.0228H171.311V20.6138H170.72V21.2049H170.129V21.7959H169.538V22.387H168.947V22.978H168.356V23.569H167.764V24.1601H167.173V24.7511H166.582V24.6034V23.1258V22.978H165.991V22.8302V17.8064V17.6586H166.582V17.5109V14.8512V14.7034H167.173V14.5557V13.0781V12.9303H167.764V11.7482H168.356C168.356 11.6005 168.356 11.2557 168.356 10.7139V10.5662H168.947V9.38407H169.538V8.79303H170.129V8.20199H170.72V7.61095H171.311V7.01991H171.902V6.42887H172.493V5.83783H173.084V5.24679H174.266V4.65575H174.857V4.06471H176.039V3.47367H176.187H177.664H177.812V2.88263H177.96H179.438H179.585V2.29159H179.733H181.211H181.358V1.70055H181.506H183.575H183.723V1.10951H183.87H187.121H187.269V0.51847ZM182.541 11.1572V11.7482H183.132V11.1572H182.541Z" fill="#24527A"/>
<path d="M182.541 11.7482V12.9303H181.949V13.5214H181.358V14.1124H180.767V14.7034H180.176V15.8855H179.585V16.4766H178.994V17.0676H178.403V17.6586H177.812V18.2497H177.221V19.4318H176.63V20.0228H176.039V20.6138H175.448V21.2049H174.857V21.7959H174.266V22.978H173.675V23.569H173.084V24.1601H172.493V24.7511H171.902V25.9332H171.311V26.5242H170.72V27.1153H170.129V27.7063H169.538V28.2974H169.685H178.255H178.403V27.7063H178.551H180.62H180.767V27.1153H181.949V26.5242H183.132V25.9332H184.314V25.3422H185.496V24.7511H186.087V24.1601H186.678V23.569H187.269V22.978H187.86V22.387H188.451V21.2049H189.042V20.6138H189.633V19.4318H190.224V19.284C190.224 18.7422 190.224 18.3974 190.224 18.2497H190.815V17.0676H191.406V16.9198V15.4422V15.2945H191.997V15.1467V0.66623C192.046 0.51847 191.997 0.469217 191.849 0.51847H187.417H187.269V1.10951H187.121H183.87H183.723V1.70055H183.575H181.506H181.358V2.29159H181.211H179.733H179.585V2.88263H179.438H177.96H177.812V3.47367H177.664H176.187H176.039V4.06471H174.857V4.65575H174.266V5.24679H173.084V5.83783H172.493V6.42887H171.902V7.01991H171.311V7.61095H170.72V8.20199H170.129V8.79303H169.538V9.38407H168.947V10.5662H168.356V10.7139C168.356 11.2557 168.356 11.6005 168.356 11.7482H167.764V12.9303H167.173V13.0781V14.5557V14.7034H166.582V14.8512V17.5109V17.6586H165.991V17.8064V22.8302V22.978H166.582V23.1258V24.6034V24.7511H167.173V24.1601H167.764V23.569H168.356V22.978H168.947V22.387H169.538V21.7959H170.129V21.2049H170.72V20.6138H171.311V20.0228H171.902V19.4318H172.493V18.8407H173.084V18.2497H173.675V17.6586H174.857V17.0676H175.448V16.4766H176.039V15.8855H176.63V15.2945H177.812V14.7034H178.403V14.1124H178.994V13.5214H179.585V12.9303H180.767V12.3393H181.358V11.7482H182.541ZM182.541 11.7482V11.1572H183.132V11.7482H182.541Z" stroke="#5E8E9B"/>
<path d="M53.6936 17.6592H53.8414H56.5011H56.6489V18.2502H56.7966H61.8205H61.9682V18.8413H62.116H64.1846H64.3324V19.4323H64.4801H65.9577H66.1055V20.0233H66.2533H67.7309H67.8786V20.6144H69.0607V21.2054H70.2428V21.7965C70.3905 21.7965 70.7353 21.7965 71.2771 21.7965H71.4249V22.3875H72.6069V22.9785H73.198V23.5696H74.3801V24.1606H74.9711V24.7517H76.1532V25.3427H76.7442V25.9337H77.3353V26.5248H77.9263V27.1158H79.1084V27.7069H79.6994V28.2979H80.2905V28.8889H80.8815V29.48H81.4726V30.071H82.0636V30.6621H82.6546V31.2531H83.2457V31.8441H83.8367V32.4352H84.4278V33.0262H85.0188V33.6173H85.6098V34.2083H86.2009V34.7993H86.7919V35.3904H87.383V35.9814H87.974V36.5725H88.565V37.1635H89.1561V37.7545H89.7471V38.3456H90.3382V38.9366H90.9292V39.5277H91.5202V40.1187H92.1113V40.7097H92.7023V41.3008H93.2934V42.4829H93.8844V43.0739H94.4754V43.6649H95.0665V44.256H95.6575V43.6649H96.2486V43.0739H96.8396V42.4829H97.4306V41.8918H98.0217V40.7097H98.6127V40.1187H99.2038V39.5277H99.7948V38.9366H100.386V38.3456H100.977V37.7545H101.568V36.5725H102.159V35.9814H102.75V35.3904H103.341V34.7993H103.932V34.2083H104.523V33.6173H105.114V33.0262H105.705V32.4352H106.296V31.8441H106.887V31.2531H107.478V30.6621H108.069V30.071H109.251V29.48H109.842V28.8889H110.434V28.2979H111.025V27.7069H112.207V27.1158H112.798V26.5248H113.389V25.9337H114.571V25.3427H115.162V24.7517H116.344V24.1606H116.935V23.5696H118.117V22.9785H119.299V22.3875H120.481V21.7965H121.663V21.2054H122.845V20.6144H122.993H124.471H124.619V20.0233H124.766H126.244H126.392V19.4323H126.539H128.017H128.165V18.8413H128.313H130.972H131.12V18.2502H131.268H142.793H142.941V18.8413H143.089H146.339H146.487V19.4323H146.635H148.112H148.26V20.0233H148.408H149.885H150.033V20.6144H150.181H151.659H151.806V21.2054H152.988V21.7965C153.136 21.7965 153.481 21.7965 154.023 21.7965H154.171V22.3875H155.353V22.9785H155.944V23.5696C156.091 23.5696 156.436 23.5696 156.978 23.5696H157.126V24.1606H158.308V24.7517H158.899V25.3427H159.49V25.9337H160.672V26.5248H161.263V27.1158H161.854V27.7069H162.445V28.2979H163.036V28.8889H163.627V29.48H164.218V30.071H164.809V30.6621H165.4V31.2531H165.991V31.8441H166.582V32.4352H167.173V33.0262H167.764V34.2083H168.356V34.7993H168.947V35.9814H169.538V37.1635H170.129V38.3456H170.72V39.5277H171.311V40.7097H171.902V41.8918H172.493V43.0739H173.084V43.2217V44.6993V44.847H173.675V44.9948V47.0634V47.2112H174.266V47.3589V50.0186V50.1664H174.857V50.3141V61.2484V61.3961H174.266V61.5439V64.2036V64.3513H173.675V64.4991V66.5677V66.7155H173.084V66.8633V68.3409V68.4886H172.493V68.6364V70.114V70.2618H171.902V71.4438H171.311V72.6259H170.72V73.808H170.129C170.129 73.9558 170.129 74.3005 170.129 74.8423V74.9901H169.538V76.1722H168.947V76.7632H168.356V77.9453H167.764V78.5363H167.173V79.1274H166.582V80.3094H165.991V80.9005H165.4V81.4915H164.809V82.0826H164.218V82.6736H163.627V83.2646H163.036V83.8557H162.445V84.4467H161.854V85.0378H160.672V85.6288H160.081V86.2198H159.49V86.8109H158.308V87.4019H157.717V87.993H156.535V88.584H155.944V89.175H154.762V89.7661H153.579V90.3571H152.397V90.9482H151.215V91.5392H151.068H149.59H149.442V92.1302H149.294H147.817H147.669V92.7213H147.521H145.453H145.305V93.3123H145.157H142.497H142.35V93.9034H142.202H131.859H131.711V93.3123H131.563H128.904H128.756V92.7213H128.608H126.539H126.392V92.1302H126.244H124.766H124.619V91.5392H124.471H122.993H122.845V90.9482H121.663V90.3571H120.481V89.7661H119.299V89.175C119.151 89.175 118.807 89.175 118.265 89.175H118.117V88.584H116.935V87.993H116.344V87.4019H115.162V86.8109H114.571V86.2198H113.389V85.6288H112.798V85.0378H112.207V84.4467H111.025V83.8557H110.434V83.2646H109.842V82.6736H109.251V82.0826H108.069V81.4915H107.478V80.9005H106.887V80.3094H106.296V79.7184H105.705V79.1274H105.114V78.5363H104.523V77.9453H103.932V77.3542H103.341V76.7632H102.75V76.1722H102.159V75.5811H101.568V74.9901H100.977V74.399H100.386V73.808H99.7948V73.217H99.2038V72.6259H98.6127V72.0349H98.0217V71.4438H97.4306V70.8528H96.2486V72.0349H95.6575V73.217H95.0665C95.0665 73.3647 95.0665 73.7095 95.0665 74.2513V74.399H94.4754V75.5811H93.8844V76.1722H93.2934V77.3542H92.7023V78.5363H92.1113V79.7184H91.5202V80.9005H90.9292C90.9292 81.0482 90.9292 81.393 90.9292 81.9348V82.0826H90.3382V83.2646H89.7471V83.8557H89.1561V85.0378H88.565V86.2198H87.974V87.4019H87.383V88.584H86.7919V89.7661H86.2009V90.9482H85.6098V92.1302H85.0188C85.0188 92.278 85.0188 92.6228 85.0188 93.1646V93.3123H84.4278V94.4944H83.8367V95.0854H83.2457V96.2675H82.6546C82.6546 96.4153 82.6546 96.76 82.6546 97.3018V97.4496H82.0636V98.6317H81.4726V99.2227H80.8815V100.405H80.2905V100.996H79.6994V101.587H79.1084V102.178H78.5173V102.769H77.9263V103.951H76.7442V104.542H76.1532V105.133H75.5621V105.724H74.9711V106.315H73.789V106.906H72.6069V107.497H71.4249V108.088H71.2771H69.7995H69.6517V108.679H69.504H66.8443H66.6965V109.27H66.5488H63.2981H63.1503V108.679H63.0025H59.7518H59.6041V108.088H59.4563H57.9787H57.8309V107.497H56.6489V106.906C56.5011 106.906 56.1563 106.906 55.6145 106.906H55.4668V106.315H54.2847V105.724H53.6936V105.133H53.1026V104.542H51.9205V103.951H51.3295V103.36H50.7384V102.178H50.1474V101.587H49.5564V100.996H48.9653V100.405H48.3743V99.2227H47.7832V98.6317H47.1922V97.4496H46.6012V96.2675H46.0101V95.0854H45.4191V93.9034H44.828V92.7213H44.237V92.5735V91.0959V90.9482H43.646V89.7661H43.0549V88.584H42.4639V87.4019H41.8728V86.2198H41.2818V86.0721V84.5945V84.4467H40.6908V83.2646H40.0997V82.0826H39.5087V80.9005H38.9176V79.7184H38.3266V79.5706V78.093V77.9453H37.7356V76.7632H37.1445V75.5811H36.5535V74.399H35.9624V73.217H35.3714V72.0349H34.7804V70.8528H34.1893V70.705V69.2274V69.0797H33.5983V67.8976H33.0072V66.7155H32.4162V65.5334H31.8251V64.3513H31.2341V64.2036V62.726V62.5782H30.6431V61.3961H29.461V61.5439V63.6125V63.7603H28.8699V63.9081V65.3857V65.5334H28.2789V65.6812V67.7498V67.8976H27.6879V68.0454V70.114V70.2618H27.0968V70.4095V71.8871V72.0349H26.5058V72.1826V73.6602V73.808H25.9147V73.9558V76.0244V76.1722H25.3237V76.3199V77.7975V77.9453H24.7327V78.093V80.1617V80.3094H24.1416V80.4572V81.9348V82.0826H23.5506V82.2303V84.299V84.4467H22.9595V84.5945V86.6631V86.8109H22.3685V86.9586V88.4362V88.584H21.7775V88.7318V90.8004V90.9482H21.1864V91.0959V92.5735V92.7213H20.5954V92.869V94.9377V95.0854H20.0043V95.2332V96.7108V96.8586H19.4133V97.0063V99.075V99.2227H18.8223V99.3705V100.848V100.996H18.2312V101.144V103.212V103.36H17.6402V103.508V105.576V105.724H17.0491V105.872V107.35V107.497H16.4581V107.645V109.123V109.27H16.3103H0.64776H0.5V109.123V107.054V106.906H1.09104V106.758V105.281V105.133H1.68208V104.985V102.917V102.769H2.27312V102.621V100.553V100.405H2.86416V100.257V98.7794V98.6317H3.4552V98.4839V96.4153V96.2675H4.04624V96.1198V94.6422V94.4944H4.63728V94.3466V92.278V92.1302H5.22832V91.9825V90.5049V90.3571H5.81937V90.2094V88.1407V87.993H6.41041V87.8452V86.3676V86.2198H7.00145V86.0721V84.0034V83.8557H7.59249V83.7079V81.6393V81.4915H8.18353V81.3438V79.8662V79.7184H8.77457V79.5706V77.502V77.3542H9.36561V77.2065V75.7289V75.5811H9.95665V75.4334V73.3647V73.217H10.5477V73.0692V71.5916V71.4438H11.1387V71.2961V69.2274V69.0797H11.7298V68.9319V67.4543V67.3065H12.3208V67.1588V65.0901V64.9424H12.9119V64.7946V63.317V63.1693H13.5029V63.0215V60.9529V60.8051H14.0939V60.6573V58.5887V58.4409H14.685V58.2932V56.8156V56.6678H15.276V56.5201V54.4514V54.3037H15.8671V54.1559V52.6783V52.5305H16.4581V52.3828V50.3141V50.1664H17.0491V50.0186V48.541V48.3933H17.6402V48.2455V46.7679V46.6201H18.2312V45.4381H18.8223V45.2903V43.8127V43.6649H19.4133V42.4829H20.0043V42.3351V40.8575V40.7097H20.5954V39.5277H21.1864V38.3456H21.7775V37.1635H22.3685V35.9814H22.9595V35.3904H23.5506V34.2083H24.1416V33.6173H24.7327V33.0262H25.3237V31.8441H25.9147V31.2531H26.5058V30.6621H27.0968V30.071H27.6879V29.48H28.2789V28.8889H28.8699V28.2979H29.461V27.7069H30.052V27.1158H30.6431V26.5248H31.8251V25.9337H32.4162V25.3427H33.0072V24.7517H34.1893V24.1606H34.7804V23.5696H35.9624V22.9785H36.5535V22.3875H37.7356V21.7965H38.9176V21.2054H39.0654H40.543H40.6908V20.6144H41.8728V20.0233H42.0206H43.4982H43.646V19.4323H43.7937H45.8624H46.0101V18.8413H46.1579H48.2265H48.3743V18.2502H48.522H53.5459H53.6936V17.6592ZM52.5116 33.0262V33.6173H49.8519H49.5564V34.2083H48.0788H47.7832V34.7993H46.6012V35.3904H45.4191V35.9814H44.237V36.5725H43.0549V37.1635H42.4639V37.7545H41.8728V38.3456H40.6908V38.9366H40.0997V39.5277H39.5087V40.1187H38.9176V40.7097H38.3266V41.0053V42.4829H38.9176V43.6649H39.5087V44.847H40.0997V46.0291H40.6908V47.2112H41.2818V48.3933H41.8728V48.6888V50.1664H42.4639V51.3485H43.0549V52.5305H43.646V53.7126H44.237V54.8947H44.828V55.1902V56.6678H45.4191V57.8499H46.0101V59.032H46.6012V60.2141H47.1922V61.3961H47.7832V62.5782H48.3743V63.7603H48.9653V64.0558V65.5334H49.5564V66.7155H50.1474V67.8976H50.7384V69.0797H51.3295V70.2618H51.9205V70.5573V72.0349H52.5116V73.217H53.1026V74.399H53.6936V75.5811H54.2847V75.8766V77.3542H54.8757V78.5363H55.4668V79.7184H56.0578V80.9005H56.6489V82.0826H57.2399V83.2646H57.8309V84.4467H58.422V84.7422V86.2198H59.013V87.4019H59.6041V88.584H60.1951V89.7661H60.7861V90.9482H61.3772V91.5392H61.9682V92.1302H62.5593V92.7213H63.1503V93.3123H63.4458H66.1055V92.7213H66.6965V92.1302H67.2876V91.5392H67.8786V90.9482H68.4697V89.7661H69.0607C69.0607 89.175 69.0607 88.781 69.0607 88.584H69.6517V87.993H70.2428V86.8109H70.8338C70.8338 86.2198 70.8338 85.8258 70.8338 85.6288H71.4249V84.4467H72.0159V83.2646H72.6069V82.6736H73.198V81.4915H73.789C73.789 80.9005 73.789 80.5064 73.789 80.3094H74.3801V79.1274H74.9711V77.9453H75.5621V76.7632H76.1532V75.5811H76.7442V74.399H77.3353V73.808H77.9263V72.6259H78.5173C78.5173 72.0349 78.5173 71.6408 78.5173 71.4438H79.1084V70.2618H79.6994V69.0797H80.2905V67.8976H80.8815V66.7155H81.4726V66.1245H82.0636V64.9424H82.6546C82.6546 64.3514 82.6546 63.9573 82.6546 63.7603H83.2457V62.5782H83.8367V61.9872H84.4278V60.8051H85.0188C85.0188 60.2141 85.0188 59.82 85.0188 59.623H85.6098V58.4409H86.2009V57.8499H85.6098V56.6678H85.0188V56.0768H84.4278V55.4857H83.8367V54.8947H83.2457V54.3037H82.6546V53.1216H82.0636V52.5305H81.4726V51.9395H80.8815V51.3485H80.2905V50.7574H79.6994V50.1664H79.1084V49.5753H78.5173V48.3933H77.9263V47.8022H77.3353V47.2112H76.7442V46.6201H76.1532V46.0291H75.5621V45.4381H74.9711V44.847H74.3801V44.256H73.789V43.6649H73.198V43.0739H72.6069V42.4829H72.0159V41.8918H71.4249V41.3008H70.8338V40.7097H70.2428V40.1187H69.6517V39.5277H69.0607V38.9366H68.4697V38.3456H67.8786V37.7545H66.6965V37.1635H66.1055V36.5725H65.5145V35.9814H64.3324V35.3904C63.7413 35.3904 63.3473 35.3904 63.1503 35.3904V34.7993H61.9682V34.2083H60.4906H60.1951V33.6173H58.1265H57.8309V33.0262H52.8071H52.5116ZM132.302 33.6173V34.2083H130.824H130.529V34.7993H129.051H128.756V35.3904H127.574V35.9814H126.392V36.5725H125.21V37.1635H124.619V37.7545H123.436V38.3456H122.845V38.9366H121.663V39.5277H121.072V40.1187H120.481V40.7097H119.299V41.3008H118.708V41.8918H118.117V42.4829H117.526V43.0739H116.935V43.6649H116.344V44.256H115.753V44.847H115.162V45.4381H114.571V46.0291H113.98V46.6201H113.389V47.2112H112.798V47.8022H112.207V48.3933H111.616V48.9843H111.025V50.1664H110.434V50.7574H109.842V51.3485H109.251V51.9395H108.66V52.5305H108.069V53.7126H107.478V54.3037H106.887V54.8947H106.296V56.0768H105.705V56.6678H106.296V57.2589H106.887V58.4409H107.478V59.032H108.069V59.623H108.66V60.2141H109.251V60.8051H109.842V61.3961H110.434V61.9872H111.025V62.5782H111.616V63.1693H112.207V63.7603H112.798V64.9424H113.389V65.5334H113.98V66.1245H114.571V66.7155H115.162V67.3065H115.753V67.8976H116.344V68.4886H117.526V69.0797H118.117V69.6707H118.708V70.2618H119.299V70.8528H119.89V71.4438H120.481V72.0349H121.663V72.6259H122.254V73.217H122.845V73.808H124.027V74.399H124.619V74.9901H125.801V75.5811H126.096C126.49 75.5811 126.786 75.5811 126.983 75.5811V76.1722H128.165V76.7632H129.347V77.3542H129.642H131.12V77.9453H131.415H132.893V78.5363H133.189H141.168V77.9453H141.463H143.532V77.3542H143.827H145.305V76.7632H146.487V76.1722H147.669V75.5811H148.26V74.9901H149.442V74.399H150.033V73.808H151.215V73.217H151.806V72.6259H152.397V72.0349H152.988V71.4438H153.579V70.8528H154.171V70.2618H154.762V69.6707H155.353V68.4886H155.944V67.8976H156.535V66.7155H157.126C157.126 66.1245 157.126 65.7304 157.126 65.5334H157.717V64.0558V63.7603H158.308V62.2827V61.9872H158.899V59.9185V59.623H159.49V52.8261V52.5305H158.899V49.8709V49.5753H158.308V48.3933H157.717V46.9157V46.6201H157.126V45.4381H156.535V44.256H155.944V43.6649H155.353V43.0739H154.762V41.8918H154.171V41.3008H153.579V40.7097H152.988V40.1187H152.397V39.5277H151.806V38.9366H151.215V38.3456H150.624V37.7545H149.442V37.1635H148.851V36.5725H147.669V35.9814C147.078 35.9814 146.684 35.9814 146.487 35.9814V35.3904H145.305V34.7993H144.123V34.2083H142.054H141.759V33.6173H132.598H132.302Z" fill="#24527A" stroke="#5E8E9B"/>
</svg>
